<mxfile host="app.diagrams.net" agent="Mozilla/5.0 (Macintosh; Intel Mac OS X 10_15_7) AppleWebKit/537.36 (KHTML, like Gecko) Chrome/141.0.0.0 Safari/537.36" version="28.2.8">
  <diagram id="kgpKYQtTHZ0yAKxKKP6v" name="Page-1">
    <mxGraphModel dx="1198" dy="767" grid="1" gridSize="10" guides="1" tooltips="1" connect="1" arrows="1" fold="1" page="1" pageScale="1" pageWidth="850" pageHeight="1100" math="0" shadow="0">
      <root>
        <mxCell id="0" />
        <mxCell id="1" parent="0" />
        <mxCell id="8zjA7OcUtVSf56RIT6LZ-9" value="用户代码" style="swimlane;horizontal=1;startSize=40;fillColor=#dae8fc;strokeColor=#6c8ebf;fontSize=14;fontStyle=1;swimlaneFillColor=#ffffff;" vertex="1" parent="1">
          <mxGeometry x="40" y="45" width="1080" height="150" as="geometry" />
        </mxCell>
        <mxCell id="8zjA7OcUtVSf56RIT6LZ-10" value="val service = retrofit.create(GitHubService::class.java)" style="rounded=1;whiteSpace=wrap;html=1;fillColor=#fff2cc;strokeColor=#d6b656;fontSize=12;" vertex="1" parent="8zjA7OcUtVSf56RIT6LZ-9">
          <mxGeometry x="80" y="60" width="320" height="50" as="geometry" />
        </mxCell>
        <mxCell id="8zjA7OcUtVSf56RIT6LZ-11" value="Retrofit.java" style="swimlane;horizontal=1;startSize=40;fillColor=#d5e8d4;strokeColor=#82b366;fontSize=14;fontStyle=1;swimlaneFillColor=#ffffff;" vertex="1" parent="1">
          <mxGeometry x="40" y="195" width="1080" height="220" as="geometry" />
        </mxCell>
        <mxCell id="8zjA7OcUtVSf56RIT6LZ-12" value="create(Class&lt;T&gt; service)" style="rounded=1;whiteSpace=wrap;html=1;fillColor=#e1d5e7;strokeColor=#9673a6;fontSize=12;" vertex="1" parent="8zjA7OcUtVSf56RIT6LZ-11">
          <mxGeometry x="80" y="60" width="180" height="50" as="geometry" />
        </mxCell>
        <mxCell id="8zjA7OcUtVSf56RIT6LZ-13" value="Step 1: 验证接口&#xa;validateServiceInterface()&#xa;• 必须是接口&#xa;• 不能有泛型参数&#xa;• 可以继承其他接口" style="rounded=1;whiteSpace=wrap;html=1;fillColor=#ffe6cc;strokeColor=#d79b00;fontSize=11;align=left;" vertex="1" parent="8zjA7OcUtVSf56RIT6LZ-11">
          <mxGeometry x="320" y="60" width="200" height="90" as="geometry" />
        </mxCell>
        <mxCell id="8zjA7OcUtVSf56RIT6LZ-14" value="Step 2: 创建动态代理&#xa;Proxy.newProxyInstance(&#xa;  classLoader,&#xa;  interfaces,&#xa;  InvocationHandler&#xa;)" style="rounded=1;whiteSpace=wrap;html=1;fillColor=#ffe6cc;strokeColor=#d79b00;fontSize=11;align=left;" vertex="1" parent="8zjA7OcUtVSf56RIT6LZ-11">
          <mxGeometry x="570" y="65" width="220" height="90" as="geometry" />
        </mxCell>
        <mxCell id="8zjA7OcUtVSf56RIT6LZ-15" value="InvocationHandler (匿名内部类)" style="swimlane;horizontal=1;startSize=40;fillColor=#f8cecc;strokeColor=#b85450;fontSize=14;fontStyle=1;swimlaneFillColor=#ffffff;" vertex="1" parent="1">
          <mxGeometry x="40" y="415" width="1080" height="300" as="geometry" />
        </mxCell>
        <mxCell id="8zjA7OcUtVSf56RIT6LZ-16" value="invoke(proxy, method, args)" style="rounded=1;whiteSpace=wrap;html=1;fillColor=#e1d5e7;strokeColor=#9673a6;fontSize=12;" vertex="1" parent="8zjA7OcUtVSf56RIT6LZ-15">
          <mxGeometry x="80" y="60" width="180" height="50" as="geometry" />
        </mxCell>
        <mxCell id="8zjA7OcUtVSf56RIT6LZ-17" value="Object 方法?&#xa;(equals, hashCode,&#xa;toString)" style="rhombus;whiteSpace=wrap;html=1;fillColor=#fff2cc;strokeColor=#d6b656;fontSize=11;" vertex="1" parent="8zjA7OcUtVSf56RIT6LZ-15">
          <mxGeometry x="300" y="50" width="140" height="120" as="geometry" />
        </mxCell>
        <mxCell id="8zjA7OcUtVSf56RIT6LZ-18" value="直接调用返回" style="rounded=1;whiteSpace=wrap;html=1;fillColor=#d5e8d4;strokeColor=#82b366;fontSize=11;" vertex="1" parent="8zjA7OcUtVSf56RIT6LZ-15">
          <mxGeometry x="310" y="200" width="120" height="40" as="geometry" />
        </mxCell>
        <mxCell id="8zjA7OcUtVSf56RIT6LZ-19" value="默认方法?&#xa;(Java 8+&#xa;interface)" style="rhombus;whiteSpace=wrap;html=1;fillColor=#fff2cc;strokeColor=#d6b656;fontSize=11;" vertex="1" parent="8zjA7OcUtVSf56RIT6LZ-15">
          <mxGeometry x="480" y="50" width="120" height="120" as="geometry" />
        </mxCell>
        <mxCell id="8zjA7OcUtVSf56RIT6LZ-20" value="平台相关处理" style="rounded=1;whiteSpace=wrap;html=1;fillColor=#d5e8d4;strokeColor=#82b366;fontSize=11;" vertex="1" parent="8zjA7OcUtVSf56RIT6LZ-15">
          <mxGeometry x="480" y="200" width="120" height="40" as="geometry" />
        </mxCell>
        <mxCell id="8zjA7OcUtVSf56RIT6LZ-21" value="loadServiceMethod(method)&#xa;.invoke()" style="rounded=1;whiteSpace=wrap;html=1;fillColor=#ffe6cc;strokeColor=#d79b00;fontSize=11;" vertex="1" parent="8zjA7OcUtVSf56RIT6LZ-15">
          <mxGeometry x="640" y="80" width="180" height="60" as="geometry" />
        </mxCell>
        <mxCell id="8zjA7OcUtVSf56RIT6LZ-32" value="No" style="text;html=1;align=center;verticalAlign=middle;resizable=0;points=[];autosize=1;fontSize=11;fontColor=#b85450;fontStyle=1;" vertex="1" parent="8zjA7OcUtVSf56RIT6LZ-15">
          <mxGeometry x="405" y="80" width="35" height="20" as="geometry" />
        </mxCell>
        <mxCell id="8zjA7OcUtVSf56RIT6LZ-22" value="返回结果" style="swimlane;horizontal=1;startSize=40;fillColor=#e1d5e7;strokeColor=#9673a6;fontSize=14;fontStyle=1;swimlaneFillColor=#ffffff;" vertex="1" parent="1">
          <mxGeometry x="40" y="715" width="1080" height="120" as="geometry" />
        </mxCell>
        <mxCell id="8zjA7OcUtVSf56RIT6LZ-23" value="返回代理对象 (Proxy)&#xa;implements GitHubService" style="rounded=1;whiteSpace=wrap;html=1;fillColor=#d5e8d4;strokeColor=#82b366;fontSize=12;fontStyle=1;" vertex="1" parent="8zjA7OcUtVSf56RIT6LZ-22">
          <mxGeometry x="420" y="50" width="240" height="50" as="geometry" />
        </mxCell>
        <mxCell id="8zjA7OcUtVSf56RIT6LZ-24" style="edgeStyle=orthogonalEdgeStyle;rounded=0;orthogonalLoop=1;jettySize=auto;html=1;exitX=0.5;exitY=1;entryX=0.5;entryY=0;strokeWidth=2;fillColor=#dae8fc;strokeColor=#6c8ebf;" edge="1" parent="1" source="8zjA7OcUtVSf56RIT6LZ-10" target="8zjA7OcUtVSf56RIT6LZ-12">
          <mxGeometry relative="1" as="geometry" />
        </mxCell>
        <mxCell id="8zjA7OcUtVSf56RIT6LZ-25" style="edgeStyle=orthogonalEdgeStyle;rounded=0;orthogonalLoop=1;jettySize=auto;html=1;exitX=1;exitY=0.5;entryX=0;entryY=0.5;strokeWidth=2;strokeColor=#82b366;" edge="1" parent="1" source="8zjA7OcUtVSf56RIT6LZ-12" target="8zjA7OcUtVSf56RIT6LZ-13">
          <mxGeometry relative="1" as="geometry" />
        </mxCell>
        <mxCell id="8zjA7OcUtVSf56RIT6LZ-26" style="edgeStyle=orthogonalEdgeStyle;rounded=0;orthogonalLoop=1;jettySize=auto;html=1;exitX=1;exitY=0.5;entryX=0;entryY=0.5;strokeWidth=2;strokeColor=#82b366;" edge="1" parent="1" source="8zjA7OcUtVSf56RIT6LZ-13" target="8zjA7OcUtVSf56RIT6LZ-14">
          <mxGeometry relative="1" as="geometry" />
        </mxCell>
        <mxCell id="8zjA7OcUtVSf56RIT6LZ-27" style="edgeStyle=orthogonalEdgeStyle;rounded=0;orthogonalLoop=1;jettySize=auto;html=1;exitX=0.5;exitY=1;entryX=0.5;entryY=0;strokeWidth=2;strokeColor=#d79b00;" edge="1" parent="1" source="8zjA7OcUtVSf56RIT6LZ-14" target="8zjA7OcUtVSf56RIT6LZ-16">
          <mxGeometry relative="1" as="geometry">
            <Array as="points">
              <mxPoint x="720" y="380" />
              <mxPoint x="210" y="380" />
            </Array>
          </mxGeometry>
        </mxCell>
        <mxCell id="8zjA7OcUtVSf56RIT6LZ-28" style="edgeStyle=orthogonalEdgeStyle;rounded=0;orthogonalLoop=1;jettySize=auto;html=1;exitX=1;exitY=0.5;entryX=0;entryY=0.5;strokeWidth=2;strokeColor=#b85450;" edge="1" parent="1" source="8zjA7OcUtVSf56RIT6LZ-16" target="8zjA7OcUtVSf56RIT6LZ-17">
          <mxGeometry relative="1" as="geometry" />
        </mxCell>
        <mxCell id="8zjA7OcUtVSf56RIT6LZ-29" style="edgeStyle=orthogonalEdgeStyle;rounded=0;orthogonalLoop=1;jettySize=auto;html=1;exitX=0.5;exitY=1;entryX=0.5;entryY=0;strokeWidth=2;strokeColor=#82b366;" edge="1" parent="1" source="8zjA7OcUtVSf56RIT6LZ-17" target="8zjA7OcUtVSf56RIT6LZ-18">
          <mxGeometry relative="1" as="geometry" />
        </mxCell>
        <mxCell id="8zjA7OcUtVSf56RIT6LZ-30" value="Yes" style="text;html=1;align=center;verticalAlign=middle;resizable=0;points=[];autosize=1;fontSize=11;fontColor=#82b366;fontStyle=1;" vertex="1" parent="1">
          <mxGeometry x="365" y="585" width="40" height="20" as="geometry" />
        </mxCell>
        <mxCell id="8zjA7OcUtVSf56RIT6LZ-31" style="edgeStyle=orthogonalEdgeStyle;rounded=0;orthogonalLoop=1;jettySize=auto;html=1;exitX=1;exitY=0.5;entryX=0;entryY=0.5;strokeWidth=2;strokeColor=#b85450;" edge="1" parent="1" source="8zjA7OcUtVSf56RIT6LZ-17" target="8zjA7OcUtVSf56RIT6LZ-19">
          <mxGeometry relative="1" as="geometry" />
        </mxCell>
        <mxCell id="8zjA7OcUtVSf56RIT6LZ-33" style="edgeStyle=orthogonalEdgeStyle;rounded=0;orthogonalLoop=1;jettySize=auto;html=1;exitX=0.5;exitY=1;entryX=0.5;entryY=0;strokeWidth=2;strokeColor=#82b366;" edge="1" parent="1" source="8zjA7OcUtVSf56RIT6LZ-19" target="8zjA7OcUtVSf56RIT6LZ-20">
          <mxGeometry relative="1" as="geometry" />
        </mxCell>
        <mxCell id="8zjA7OcUtVSf56RIT6LZ-34" value="Yes" style="text;html=1;align=center;verticalAlign=middle;resizable=0;points=[];autosize=1;fontSize=11;fontColor=#82b366;fontStyle=1;" vertex="1" parent="1">
          <mxGeometry x="540" y="585" width="40" height="20" as="geometry" />
        </mxCell>
        <mxCell id="8zjA7OcUtVSf56RIT6LZ-35" style="edgeStyle=orthogonalEdgeStyle;rounded=0;orthogonalLoop=1;jettySize=auto;html=1;exitX=1;exitY=0.5;entryX=0;entryY=0.5;strokeWidth=2;strokeColor=#b85450;" edge="1" parent="1" source="8zjA7OcUtVSf56RIT6LZ-19" target="8zjA7OcUtVSf56RIT6LZ-21">
          <mxGeometry relative="1" as="geometry" />
        </mxCell>
        <mxCell id="8zjA7OcUtVSf56RIT6LZ-36" value="No" style="text;html=1;align=center;verticalAlign=middle;resizable=0;points=[];autosize=1;fontSize=11;fontColor=#b85450;fontStyle=1;" vertex="1" parent="1">
          <mxGeometry x="605" y="495" width="35" height="20" as="geometry" />
        </mxCell>
        <mxCell id="8zjA7OcUtVSf56RIT6LZ-37" style="edgeStyle=orthogonalEdgeStyle;rounded=0;orthogonalLoop=1;jettySize=auto;html=1;exitX=0.5;exitY=1;entryX=0.5;entryY=0;strokeWidth=2;strokeColor=#9673a6;" edge="1" parent="1" source="8zjA7OcUtVSf56RIT6LZ-21" target="8zjA7OcUtVSf56RIT6LZ-23">
          <mxGeometry relative="1" as="geometry" />
        </mxCell>
        <mxCell id="8zjA7OcUtVSf56RIT6LZ-38" value="Retrofit.create() 流程 - 泳道图" style="text;html=1;strokeColor=none;fillColor=none;align=center;verticalAlign=middle;whiteSpace=wrap;rounded=0;fontSize=18;fontStyle=1;fontColor=#000000;" vertex="1" parent="1">
          <mxGeometry x="400" y="10" width="360" height="30" as="geometry" />
        </mxCell>
      </root>
    </mxGraphModel>
  </diagram>
</mxfile>
